<?xml version="1.0" standalone="no"?><svg xmlns="http://www.w3.org/2000/svg" viewBox="0 0 1440 320"><path fill="#fa5a5a" fill-opacity="1" d="M0,256L12,234.7C24,213,48,171,72,165.3C96,160,120,192,144,197.3C168,203,192,181,216,192C240,203,264,245,288,266.7C312,288,336,288,360,245.3C384,203,408,117,432,112C456,107,480,181,504,213.3C528,245,552,235,576,213.3C600,192,624,160,648,144C672,128,696,128,720,154.7C744,181,768,235,792,240C816,245,840,203,864,154.7C888,107,912,53,936,26.7C960,0,984,0,1008,53.3C1032,107,1056,213,1080,250.7C1104,288,1128,256,1152,250.7C1176,245,1200,267,1224,261.3C1248,256,1272,224,1296,181.3C1320,139,1344,85,1368,80C1392,75,1416,117,1428,138.7L1440,160L1440,0L1428,0C1416,0,1392,0,1368,0C1344,0,1320,0,1296,0C1272,0,1248,0,1224,0C1200,0,1176,0,1152,0C1128,0,1104,0,1080,0C1056,0,1032,0,1008,0C984,0,960,0,936,0C912,0,888,0,864,0C840,0,816,0,792,0C768,0,744,0,720,0C696,0,672,0,648,0C624,0,600,0,576,0C552,0,528,0,504,0C480,0,456,0,432,0C408,0,384,0,360,0C336,0,312,0,288,0C264,0,240,0,216,0C192,0,168,0,144,0C120,0,96,0,72,0C48,0,24,0,12,0L0,0Z"></path></svg>